<svg xmlns="http://www.w3.org/2000/svg" viewBox="0 0 1535.55 200.29"><defs><style>.cls-1{fill:white;}</style></defs><g id="Layer_2" data-name="Layer 2"><g id="Layer_1-2" data-name="Layer 1"><path class="cls-1" d="M252.32,29.75V9.86c0-5.18,4.36-9.53,9-9.53H394.8c4.91,0,9,4.35,9,9.53V29.75a9.31,9.31,0,0,1-9,9.26H261.31C256.68,39,252.32,34.65,252.32,29.75Zm0,80.64V90c0-5.18,4.36-9.54,9-9.54H382.54A9.71,9.71,0,0,1,392.35,90v20.43a9.71,9.71,0,0,1-9.81,9.53H261.31C256.68,119.92,252.32,115.57,252.32,110.39Zm0,80.37V170.87c0-4.9,4.36-9.26,9-9.26H394.8a9.31,9.31,0,0,1,9,9.26v19.89c0,5.17-4.08,9.53-9,9.53H261.31C256.68,200.29,252.32,195.93,252.32,190.76Z"/><path class="cls-1" d="M40.05,7.14a9.56,9.56,0,0,0-9-6.81H9.26A9.79,9.79,0,0,0,0,9.86a11.7,11.7,0,0,0,.54,3l22.52,76c1.09,4.09,4.08,6.81,9,6.81H53.3c4.9,0,9.53-4.08,9.53-9a13.71,13.71,0,0,0-.54-3.26Z"/><path class="cls-1" d="M198.33,130,158.83,7.14A9.64,9.64,0,0,0,149.57.33H126.14a8.92,8.92,0,0,0-9,6.53L56.94,187.76a6.34,6.34,0,0,0-.55,3,9.31,9.31,0,0,0,9.54,9.53H88.81a9.5,9.5,0,0,0,9.27-6.54L137.85,69.8l40.05,124a8.93,8.93,0,0,0,9,6.54h22.88a9.47,9.47,0,0,0,7.86-4L198.33,130Z"/><path class="cls-1" d="M571.15,99.68c7.62,5.92,11.78,13.38,15.12,21.34,10.24,24.45,1.56,53.74-20.31,68.72-3.44,2.36-4.11,2.2-6.15-1.43l-10-17.66c-2.07-3.66-2-4.22,1.18-7,10.9-9.65,13.16-24.51,5.26-36.11-6.2-9.1-15-13.21-26-12.5a58.58,58.58,0,0,0-7.4.46c-3.23.63-4.65-.75-6.07-3.47-4.13-7.93-8.63-15.68-13-23.52a36.71,36.71,0,0,1-1.45-3.38c5.31,0,10.25.13,15.18,0,7.5-.24,15.17.22,22.46-1.21,12.72-2.5,21.5-14.82,20.85-27.5a27.65,27.65,0,0,0-23.36-26.16,47.28,47.28,0,0,0-6.83-.53c-18.78,0-37.57.05-56.35-.09-1.66,0-4.08-.9-4.83-2.17-5.19-8.74-10-17.7-15.25-27,1.61-.15,2.78-.35,3.95-.35C483.62,0,509,0,534.34,0c27,.09,50.58,20.35,55.31,47.27,3.45,19.62-2.44,36.25-16,50.47A23.68,23.68,0,0,1,571.15,99.68Z"/><path class="cls-1" d="M468.32,170.52h3.8c15.36,0,30.71,0,46.06-.14a7.14,7.14,0,0,1,7.1,4.16c3.84,7.12,8,14.1,11.91,21.15,2,3.53,1.37,4.57-2.68,4.57q-46,0-92.12,0c-3.29,0-3.72-.45-3.72-3.87q-.06-37.62-.1-75.23,0-44.48.16-88.95c0-1.8,1-3.6,1.55-5.4a30.72,30.72,0,0,1,3.22,3.95c7.41,12.87,14.69,25.82,22.14,38.67a19.74,19.74,0,0,1,2.73,10.31q-.12,43.47-.05,86.95Z"/><path class="cls-1" d="M918.16.36,850.88,199.94H828.64L770.19,29.72,711.45,199.94h-22L622.21.36h21.67L701.47,172,761.06.36h19.67l58.74,172.49L897.92.36Z"/><path class="cls-1" d="M956.65.36h21.1V199.94h-21.1Z"/><path class="cls-1" d="M1240.45.71h21.1V182h111.77v18.25H1240.45Z"/><path class="cls-1" d="M1455.72,130.94v69H1434.9v-69L1355.07.36h22.52L1446,112.41l68.43-112h21.1Z"/><path class="cls-1" d="M1035,200.1V153.94h11.6V188c28.18-1.87,55.74,3.79,82.44-5.47,39.64-13.74,63.84-54.79,57.12-96.15-6.77-41.59-42.41-72.73-84.4-73.43-17.94-.3-35.9,0-54.87,0,0,14.69-.22,28.49.06,42.28.37,18.82-.56,37.88,2.08,56.4,4.63,32.37,43.83,51,70.59,36.34,7.54-4.12,14.32-9.91,20.73-15.73,4.25-3.85,7.72-6.57,12.47-1.61s0,7.74-2.92,10.8c-27.64,29.37-63.47,32.38-93.9,6.92a57.57,57.57,0,0,1-21.2-44.09c-.56-33.38-.19-66.77-.16-100.16,0-.82.49-1.64,1.13-3.61,12.34,0,25-.28,37.55.07,15.62.42,31.6-.54,46.76,2.43,50.41,9.88,83.68,56,79,107.31-4.52,49.78-46.32,88.33-97.95,89.75C1079.38,200.59,1057.58,200.1,1035,200.1Z"/><path class="cls-1" d="M1100.76,106.35V94.26h50.73C1149.36,76,1140.64,63,1125.71,54.8c-22.53-12.42-43.71-8.57-63.46,7.73-1.63-1.42-3.2-2.67-4.61-4.07-1.24-1.23-2.3-2.64-3.43-3.94,18.24-20,50-25.08,75.07-12.13,24,12.38,39.24,40.7,34,64Z"/></g></g></svg>